# Blender v2.77 (sub 0) OBJ File: 'fence.blend'
# www.blender.org
mtllib fence_wood.mtl
o prop_env_fence01_Cube.003
v -3.847451 0.354009 0.154514
v -3.847451 0.354009 -0.154514
v -0.126202 0.354009 -0.146009
v -0.126202 0.354009 0.146009
v -3.852045 0.893494 0.166426
v -3.852044 0.893494 -0.166426
v -0.127450 0.893494 -0.154109
v -0.127450 0.893494 0.154109
v -0.126189 1.579013 -0.181619
v -0.126189 1.579013 0.181620
v -3.839368 1.579013 0.182616
v -3.839368 1.579013 -0.182616
v -0.121476 2.096069 -0.199265
v -0.121476 2.096069 0.199266
v -3.838088 2.096069 0.194615
v -3.838088 2.096069 -0.194615
v -4.264357 2.572526 0.354032
v -4.264357 2.572526 -0.354032
v -4.238795 -0.202506 -0.233023
v -4.238795 -0.202506 0.233023
v -3.799421 2.572526 0.350903
v -3.799421 2.572526 -0.350903
v -3.775736 -0.202506 -0.233943
v -3.775736 -0.202506 0.233943
vt 0.2980 0.0152
vt 0.0123 0.0571
vt 0.0123 0.0152
vt 0.2996 0.1364
vt 0.0140 0.0945
vt 0.2996 0.0945
vt 0.2980 0.0571
vt 0.3013 0.1738
vt 0.0140 0.1364
vt 0.0148 0.0556
vt 0.2980 0.0145
vt 0.2980 0.0556
vt 0.3021 0.1357
vt 0.0140 0.0938
vt 0.3021 0.0938
vt 0.0123 0.0564
vt 0.3038 0.1723
vt 0.0140 0.1357
vt 0.4057 0.2467
vt 0.3713 0.2123
vt 0.4057 0.2123
vt 0.4400 0.2123
vt 0.4744 0.0062
vt 0.4744 0.2123
vt 0.3718 0.2464
vt 0.4052 0.2131
vt 0.4052 0.2464
vt 0.3713 0.0062
vt 0.4057 0.0062
vt 0.3370 0.2123
vt 0.0157 0.1738
vt 0.0148 0.0145
vt 0.3004 0.0564
vt 0.0157 0.1723
vt 0.3713 0.2467
vt 0.4400 0.0062
vt 0.3718 0.2131
vt 0.3370 0.0062
vn 0.0033 -0.0220 -0.9998
vn 0.0023 -0.0150 0.9999
vn 0.0000 -1.0000 0.0000
vn 0.0000 1.0000 0.0000
vn -0.0013 -0.0341 0.9994
vn 0.0003 -0.0232 -0.9997
vn 0.0067 -0.0435 -0.9990
vn -0.0020 -0.0421 0.9991
vn -1.0000 -0.0092 0.0000
vn 1.0000 0.0085 0.0000
vn 0.0023 -0.0150 -0.9999
vn 0.0033 -0.0220 0.9998
vn 0.0003 -0.0232 0.9997
vn -0.0013 -0.0341 -0.9994
vn -0.0020 -0.0421 -0.9991
vn 0.0067 -0.0435 0.9990
usemtl None
s off
f 7/1/1 2/2/1 6/3/1
f 8/4/2 1/5/2 4/6/2
f 1/5/3 3/7/3 4/6/3
f 7/8/4 5/9/4 8/4/4
f 15/10/5 10/11/5 14/12/5
f 16/13/6 9/14/6 12/15/6
f 10/16/3 12/15/3 9/14/3
f 15/17/4 13/18/4 16/13/4
f 22/19/4 17/20/4 21/21/4
f 22/22/7 19/23/7 18/24/7
f 24/25/3 19/26/3 23/27/3
f 21/21/8 20/28/8 24/29/8
f 18/30/9 20/28/9 17/20/9
f 24/29/10 22/22/10 21/21/10
f 7/1/11 3/7/11 2/2/11
f 8/4/12 5/9/12 1/5/12
f 1/5/3 2/2/3 3/7/3
f 7/8/4 6/31/4 5/9/4
f 15/10/13 11/32/13 10/11/13
f 16/13/14 13/18/14 9/14/14
f 10/16/3 11/33/3 12/15/3
f 15/17/4 14/34/4 13/18/4
f 22/19/4 18/35/4 17/20/4
f 22/22/15 23/36/15 19/23/15
f 24/25/3 20/37/3 19/26/3
f 21/21/16 17/20/16 20/28/16
f 18/30/9 19/38/9 20/28/9
f 24/29/10 23/36/10 22/22/10
