# Blender v2.77 (sub 0) OBJ File: 'fence.blend'
# www.blender.org
mtllib fence_wood_end.mtl
o prop_env_fence01_post_Cube.009
v -0.264357 2.572526 0.354032
v -0.264357 2.572526 -0.354032
v -0.238795 -0.202506 -0.233023
v -0.238795 -0.202506 0.233023
v 0.200579 2.572526 0.350903
v 0.200579 2.572526 -0.350903
v 0.224264 -0.202506 -0.233943
v 0.224264 -0.202506 0.233943
vt 0.4057 0.2467
vt 0.3713 0.2123
vt 0.4057 0.2123
vt 0.4400 0.2123
vt 0.4744 0.0062
vt 0.4744 0.2123
vt 0.3718 0.2464
vt 0.4052 0.2131
vt 0.4052 0.2464
vt 0.3713 0.0062
vt 0.4057 0.0062
vt 0.3370 0.2123
vt 0.4400 0.0062
vt 0.3713 0.2467
vt 0.3718 0.2131
vt 0.3370 0.0062
vn 0.0000 1.0000 0.0000
vn 0.0067 -0.0435 -0.9990
vn 0.0000 -1.0000 0.0000
vn -0.0020 -0.0421 0.9991
vn -1.0000 -0.0092 0.0000
vn 1.0000 0.0085 0.0000
vn -0.0020 -0.0421 -0.9991
vn 0.0067 -0.0435 0.9990
usemtl None
s off
f 6/1/1 1/2/1 5/3/1
f 6/4/2 3/5/2 2/6/2
f 8/7/3 3/8/3 7/9/3
f 5/3/4 4/10/4 8/11/4
f 2/12/5 4/10/5 1/2/5
f 7/13/6 5/3/6 8/11/6
f 6/1/1 2/14/1 1/2/1
f 6/4/7 7/13/7 3/5/7
f 8/7/3 4/15/3 3/8/3
f 5/3/8 1/2/8 4/10/8
f 2/12/5 3/16/5 4/10/5
f 7/13/6 6/4/6 5/3/6
