# Blender v2.77 (sub 0) OBJ File: 'fence.blend'
# www.blender.org
mtllib fence_picket_end.mtl
o prop_env_fence02_post_Cube.012
v -0.264357 2.572526 0.229485
v -0.264309 2.572526 -0.228759
v -0.238795 -0.202506 -0.151047
v -0.238795 -0.202506 0.151047
v 0.200627 2.572526 0.228183
v 0.200627 2.572526 -0.228759
v 0.224264 -0.202506 -0.151643
v 0.224264 -0.202506 0.151643
v 0.113544 2.656042 0.142598
v 0.072084 2.810776 0.101851
v 0.168881 2.981206 0.196983
v -0.108508 3.185049 0.075636
v -0.108508 3.185049 -0.075636
v 0.044778 3.185049 0.075014
v 0.044731 3.185049 -0.074968
v 0.113592 2.656042 -0.144096
v -0.177180 2.656042 -0.142828
v 0.072132 2.810776 -0.103168
v -0.135719 2.810776 -0.102262
v 0.168929 2.981206 -0.198723
v -0.232516 2.981206 -0.196972
v 0.044826 3.185049 -0.076213
v -0.108413 3.185049 -0.075544
v -0.108508 3.185049 -0.075636
v -0.108508 3.185049 0.075636
v -0.232611 2.981206 -0.198147
v -0.232611 2.981206 0.198147
v -0.135815 2.810776 -0.102592
v -0.135815 2.810776 0.102592
v -0.177275 2.656042 -0.143520
v -0.177275 2.656042 0.143520
v -0.264309 2.572526 -0.228759
v -0.264357 2.572526 0.229485
v -0.264357 2.572526 0.229485
v 0.200627 2.572526 0.228183
v -0.177275 2.656042 0.143520
v 0.113544 2.656042 0.142598
v -0.135815 2.810776 0.102592
v 0.072084 2.810776 0.101851
v -0.232611 2.981206 0.198147
v 0.168881 2.981206 0.196983
v -0.108508 3.185049 0.075636
v 0.044778 3.185049 0.075014
vt 0.3775 0.4768
vt 0.3962 0.4890
vt 0.3806 0.4890
vt 0.3699 0.4676
vt 0.4056 0.2601
vt 0.4056 0.4676
vt 0.3718 0.5018
vt 0.4052 0.4685
vt 0.4052 0.5018
vt 0.4050 0.4671
vt 0.3695 0.2596
vt 0.4050 0.2596
vt 0.3722 0.4675
vt 0.4038 0.2612
vt 0.4038 0.4675
vt 0.4404 0.2627
vt 0.4050 0.4691
vt 0.4050 0.2627
vt 0.4042 0.5041
vt 0.3830 0.5223
vt 0.3735 0.5041
vt 0.4041 0.5044
vt 0.3829 0.5226
vt 0.3733 0.5044
vt 0.3734 0.5039
vt 0.3998 0.4772
vt 0.3808 0.4894
vt 0.3776 0.4772
vt 0.3810 0.4891
vt 0.3950 0.5348
vt 0.3829 0.5229
vt 0.3950 0.5229
vt 0.4065 0.4680
vt 0.3709 0.4680
vt 0.4001 0.4770
vt 0.3778 0.4769
vt 0.4058 0.4676
vt 0.3710 0.4676
vt 0.3942 0.5221
vt 0.3827 0.5221
vt 0.4067 0.4678
vt 0.3712 0.4678
vt 0.3964 0.4890
vt 0.3735 0.5040
vt 0.3808 0.4890
vt 0.4037 0.5040
vt 0.3829 0.5222
vt 0.3996 0.4768
vt 0.3777 0.4768
vt 0.3712 0.4676
vt 0.3993 0.4768
vt 0.3699 0.2601
vt 0.3718 0.4685
vt 0.3695 0.4671
vt 0.3722 0.2612
vt 0.4404 0.4691
vt 0.3947 0.5223
vt 0.3946 0.5226
vt 0.4035 0.5039
vt 0.3967 0.4894
vt 0.3969 0.4892
vt 0.3829 0.5348
vt 0.3944 0.5222
vt 0.4061 0.4676
vn 0.9659 0.2589 0.0002
vn 0.0000 -0.0280 -0.9996
vn 0.0000 -1.0000 0.0000
vn -0.0013 -0.0276 0.9996
vn -1.0000 -0.0092 -0.0001
vn 1.0000 0.0085 0.0000
vn -0.0037 0.5135 -0.8581
vn 0.0025 0.5140 0.8578
vn 0.8695 -0.4939 0.0002
vn 0.0031 0.2549 0.9670
vn -0.0038 -0.4874 -0.8732
vn 0.0025 -0.4880 0.8729
vn 0.0000 1.0000 0.0000
vn 0.0020 0.7163 0.6978
vn -0.0042 0.2547 -0.9670
vn 0.6922 0.7217 0.0000
vn 0.8541 0.5201 0.0003
vn 0.0000 0.7119 -0.7023
vn -0.8695 -0.4939 0.0000
vn -0.8542 0.5200 0.0000
vn -0.9659 0.2588 0.0000
vn -0.6924 0.7215 0.0000
vn 0.9659 0.2588 0.0002
vn -0.0013 -0.0278 -0.9996
vn 0.0028 -0.0282 0.9996
vn -1.0000 -0.0092 0.0000
vn -0.0037 0.5134 -0.8581
vn 0.0035 0.5150 0.8572
vn 0.8696 -0.4938 0.0001
vn 0.0034 0.2555 0.9668
vn 0.0031 -0.4887 0.8724
vn 0.0022 0.7168 0.6972
vn 0.6924 0.7215 0.0001
vn 0.8542 0.5200 0.0001
vn -0.0030 0.7186 -0.6954
vn -0.6922 0.7217 -0.0001
usemtl None
s off
f 9/1/1 18/2/1 10/3/1
f 6/4/2 3/5/2 2/6/2
f 8/7/3 3/8/3 7/9/3
f 5/10/4 4/11/4 8/12/4
f 2/13/5 4/14/5 1/15/5
f 7/16/6 5/17/6 8/18/6
f 21/19/7 22/20/7 20/21/7
f 41/22/8 42/23/8 40/24/8
f 18/2/9 11/25/9 10/3/9
f 37/26/10 38/27/10 36/28/10
f 18/29/11 21/19/11 20/21/11
f 38/27/12 41/22/12 40/24/12
f 15/30/13 12/31/13 14/32/13
f 35/33/14 36/28/14 34/34/14
f 17/35/15 18/29/15 16/36/15
f 6/37/16 9/1/16 5/38/16
f 11/25/17 22/39/17 14/40/17
f 2/41/18 16/36/18 6/42/18
f 29/43/19 26/44/19 28/45/19
f 27/46/20 24/47/20 26/44/20
f 31/48/21 28/45/21 30/49/21
f 32/50/22 31/48/22 30/49/22
f 9/1/23 16/51/23 18/2/23
f 6/4/24 7/52/24 3/5/24
f 8/7/3 4/53/3 3/8/3
f 5/10/25 1/54/25 4/11/25
f 2/13/26 3/55/26 4/14/26
f 7/16/6 6/56/6 5/17/6
f 21/19/27 23/57/27 22/20/27
f 41/22/28 43/58/28 42/23/28
f 18/2/29 20/59/29 11/25/29
f 37/26/30 39/60/30 38/27/30
f 18/29/11 19/61/11 21/19/11
f 38/27/31 39/60/31 41/22/31
f 15/30/13 13/62/13 12/31/13
f 35/33/32 37/26/32 36/28/32
f 17/35/15 19/61/15 18/29/15
f 6/37/33 16/51/33 9/1/33
f 11/25/34 20/59/34 22/39/34
f 2/41/35 17/35/35 16/36/35
f 29/43/19 27/46/19 26/44/19
f 27/46/20 25/63/20 24/47/20
f 31/48/21 29/43/21 28/45/21
f 32/50/36 33/64/36 31/48/36
