# Blender v2.77 (sub 0) OBJ File: ''
# www.blender.org
o Cylinder
v 0.000000 0.000000 -1.000000
v -0.000000 0.727551 -1.315265
v 0.587785 0.000000 -0.809017
v 0.773093 0.727551 -1.064072
v 0.951057 0.000000 -0.309017
v 1.250891 0.727551 -0.406439
v 0.951056 0.000000 0.309017
v 1.250891 0.727551 0.406439
v 0.587785 0.000000 0.809017
v 0.773093 0.727551 1.064072
v -0.000000 0.000000 1.000000
v -0.000000 0.727551 1.315265
v -0.587785 0.000000 0.809017
v -0.773093 0.727551 1.064072
v -0.951056 0.000000 0.309017
v -1.250891 0.727551 0.406439
v -0.951056 0.000000 -0.309017
v -1.250891 0.727551 -0.406439
v -0.587785 0.000000 -0.809017
v -0.773093 0.727551 -1.064072
v 0.469801 1.888510 -0.646625
v -0.000000 1.888510 -0.799273
v 0.760153 1.888510 -0.246989
v 0.760153 1.888510 0.246989
v 0.469801 1.888510 0.646625
v -0.000000 1.888510 0.799273
v -0.469801 1.888510 0.646625
v -0.760153 1.888510 0.246989
v -0.760153 1.888510 -0.246989
v -0.469800 1.888510 -0.646625
v 0.514957 1.975625 -0.708777
v -0.000000 1.975625 -0.876096
v 0.833217 1.975625 -0.270729
v 0.833217 1.975625 0.270729
v 0.514956 1.975625 0.708777
v -0.000000 1.975625 0.876096
v -0.514957 1.975625 0.708777
v -0.833217 1.975625 0.270729
v -0.833217 1.975625 -0.270729
v -0.514956 1.975625 -0.708777
v 0.514957 2.189033 -0.708777
v -0.000000 2.189033 -0.876096
v 0.833217 2.189033 -0.270729
v 0.833217 2.189033 0.270729
v 0.514956 2.189033 0.708777
v -0.000000 2.189033 0.876096
v -0.514957 2.189033 0.708777
v -0.833217 2.189033 0.270729
v -0.833217 2.189033 -0.270729
v -0.514956 2.189033 -0.708777
v -0.298838 2.112878 0.298838
v -0.298838 2.299957 0.298838
v -0.298838 2.112878 -0.298838
v -0.298838 2.299957 -0.298838
v 0.298838 2.112878 0.298838
v 0.298838 2.299957 0.298838
v 0.298838 2.112878 -0.298838
v 0.298838 2.299957 -0.298838
vt 1.0000 0.2474
vt 0.9000 -0.0000
vt 1.0000 -0.0000
vt 0.9000 0.2474
vt 0.8000 -0.0000
vt 0.8000 0.2474
vt 0.7000 -0.0000
vt 0.6000 0.2474
vt 0.6000 -0.0000
vt 0.5000 0.2474
vt 0.5000 0.0000
vt 0.4000 0.0000
vt 0.4000 0.2474
vt 0.3000 0.0000
vt 0.3000 0.2474
vt 0.2000 -0.0000
vt 0.2000 0.6343
vt 0.2000 0.2474
vt 0.1000 -0.0000
vt 0.0000 0.2474
vt 0.0000 -0.0000
vt 0.0260 0.8276
vt 0.2500 0.8276
vt 0.2764 0.7462
vt 0.6000 0.6343
vt 0.7000 0.6636
vt 0.6000 0.6636
vt 0.3000 0.6343
vt 0.4000 0.6343
vt 0.5000 0.6343
vt 0.7000 0.2474
vt 0.9000 0.6343
vt 0.7000 0.6343
vt 0.8000 0.6343
vt 0.1000 0.2474
vt 0.0000 0.6343
vt 0.1000 0.6343
vt 1.0000 0.6636
vt 0.9000 0.7352
vt 0.9000 0.6636
vt 1.0000 0.6343
vt 0.2000 0.6636
vt 0.5000 0.6636
vt 0.8000 0.6636
vt 0.1000 0.6636
vt 0.4000 0.6636
vt 0.0000 0.6636
vt 0.3000 0.6636
vt 0.6806 0.8388
vt 0.5562 0.7484
vt 0.2781 0.8388
vt 0.2000 0.7352
vt 0.5000 0.7352
vt 0.8000 0.7352
vt 0.1000 0.7352
vt 0.4000 0.7352
vt 0.7000 0.7352
vt 0.0000 0.7352
vt 0.3000 0.7352
vt 0.6000 0.7352
vt 0.9301 0.8031
vt 0.9719 0.9363
vt 0.9301 0.9363
vt 0.7969 0.8031
vt 0.9301 0.7614
vt 0.7969 0.9363
vt 0.7552 0.8031
vt 0.7969 0.9781
vt -0.0004 0.7462
vt 0.2500 0.8276
vt 0.0952 0.8778
vt 0.6806 0.8388
vt 0.2306 0.9850
vt 0.4025 0.7484
vt 0.0952 0.8778
vt 0.1807 0.8778
vt 1.0000 0.7352
vt 0.7281 0.9850
vt 0.4025 0.7484
vt 0.9719 0.8031
vt 0.7969 0.7614
vt 0.7552 0.9363
vt 0.9301 0.9781
vt 0.0260 0.8276
vt 0.1807 0.8778
vt 0.5562 0.7484
vt 0.2781 0.8388
vn 0.2857 -0.3810 -0.8793
vn 0.7480 -0.3810 -0.5434
vn 0.9246 -0.3810 0.0000
vn 0.7480 -0.3810 0.5434
vn 0.2857 -0.3810 0.8793
vn -0.2857 -0.3810 0.8793
vn -0.7480 -0.3810 0.5434
vn -0.9246 -0.3810 0.0000
vn -0.9211 0.3893 0.0000
vn -0.7480 -0.3810 -0.5434
vn -0.2857 -0.3810 -0.8793
vn 0.0000 -1.0000 0.0000
vn 0.6199 -0.6426 0.4504
vn -0.7452 0.3893 0.5414
vn -0.2846 0.3893 0.8760
vn 0.2846 0.3893 0.8760
vn 0.7452 0.3893 0.5414
vn 0.2846 0.3893 -0.8760
vn 0.9211 0.3893 0.0000
vn 0.7452 0.3893 -0.5414
vn -0.2846 0.3893 -0.8760
vn -0.7452 0.3893 -0.5414
vn 0.3090 0.0000 -0.9511
vn 0.2368 -0.6426 -0.7287
vn -0.7662 -0.6426 0.0000
vn 0.2368 -0.6426 0.7287
vn 0.6199 -0.6426 -0.4504
vn -0.6199 -0.6426 -0.4504
vn -0.2368 -0.6426 0.7287
vn 0.7662 -0.6426 0.0000
vn -0.2368 -0.6426 -0.7287
vn -0.6199 -0.6426 0.4504
vn 0.0000 1.0000 0.0000
vn -1.0000 0.0000 0.0000
vn 0.3090 0.0000 0.9511
vn 0.8090 0.0000 -0.5878
vn -0.8090 0.0000 -0.5878
vn -0.3090 0.0000 0.9511
vn 1.0000 0.0000 0.0000
vn -0.3090 0.0000 -0.9511
vn -0.8090 0.0000 0.5878
vn 0.8090 0.0000 0.5878
vn 0.0000 0.0000 -1.0000
vn 0.0000 0.0000 1.0000
s off
f 2/1/1 3/2/1 1/3/1
f 4/4/2 5/5/2 3/2/2
f 6/6/3 7/7/3 5/5/3
f 7/7/4 10/8/4 9/9/4
f 9/9/5 12/10/5 11/11/5
f 12/10/6 13/12/6 11/11/6
f 14/13/7 15/14/7 13/12/7
f 16/15/8 17/16/8 15/14/8
f 16/15/9 29/17/9 18/18/9
f 18/18/10 19/19/10 17/16/10
f 19/19/11 2/20/11 1/21/11
f 3/22/12 9/23/12 11/24/12
f 25/25/13 34/26/13 35/27/13
f 14/13/14 28/28/14 16/15/14
f 12/10/15 27/29/15 14/13/15
f 12/10/16 25/25/16 26/30/16
f 8/31/17 25/25/17 10/8/17
f 2/1/18 21/32/18 4/4/18
f 6/6/19 24/33/19 8/31/19
f 4/4/20 23/34/20 6/6/20
f 20/35/21 22/36/21 2/20/21
f 18/18/22 30/37/22 20/35/22
f 32/38/23 41/39/23 31/40/23
f 22/41/24 31/40/24 21/32/24
f 28/28/25 39/42/25 29/17/25
f 25/25/26 36/43/26 26/30/26
f 21/32/27 33/44/27 23/34/27
f 29/17/28 40/45/28 30/37/28
f 26/30/29 37/46/29 27/29/29
f 23/34/30 34/26/30 24/33/30
f 22/36/31 40/45/31 32/47/31
f 27/29/32 38/48/32 28/28/32
f 49/49/33 48/50/33 46/51/33
f 38/48/34 49/52/34 39/42/34
f 35/27/35 46/53/35 36/43/35
f 31/40/36 43/54/36 33/44/36
f 39/42/37 50/55/37 40/45/37
f 36/43/38 47/56/38 37/46/38
f 33/44/39 44/57/39 34/26/39
f 40/45/40 42/58/40 32/47/40
f 37/46/41 48/59/41 38/48/41
f 34/26/42 45/60/42 35/27/42
f 54/61/34 51/62/34 52/63/34
f 58/64/43 53/65/43 54/61/43
f 56/66/39 57/67/39 58/64/39
f 52/63/44 55/68/44 56/66/44
f 58/64/33 52/63/33 56/66/33
f 1/69/12 13/70/12 17/71/12
f 42/72/33 45/73/33 43/74/33
f 2/1/1 4/4/1 3/2/1
f 4/4/2 6/6/2 5/5/2
f 6/6/3 8/31/3 7/7/3
f 7/7/4 8/31/4 10/8/4
f 9/9/5 10/8/5 12/10/5
f 12/10/6 14/13/6 13/12/6
f 14/13/7 16/15/7 15/14/7
f 16/15/8 18/18/8 17/16/8
f 16/15/9 28/28/9 29/17/9
f 18/18/10 20/35/10 19/19/10
f 19/19/11 20/35/11 2/20/11
f 11/24/12 1/69/12 3/22/12
f 3/22/12 5/75/12 7/76/12
f 7/76/12 9/23/12 3/22/12
f 25/25/13 24/33/13 34/26/13
f 14/13/14 27/29/14 28/28/14
f 12/10/15 26/30/15 27/29/15
f 12/10/16 10/8/16 25/25/16
f 8/31/17 24/33/17 25/25/17
f 2/1/18 22/41/18 21/32/18
f 6/6/19 23/34/19 24/33/19
f 4/4/20 21/32/20 23/34/20
f 20/35/21 30/37/21 22/36/21
f 18/18/22 29/17/22 30/37/22
f 32/38/23 42/77/23 41/39/23
f 22/41/24 32/38/24 31/40/24
f 28/28/25 38/48/25 39/42/25
f 25/25/26 35/27/26 36/43/26
f 21/32/27 31/40/27 33/44/27
f 29/17/28 39/42/28 40/45/28
f 26/30/29 36/43/29 37/46/29
f 23/34/30 33/44/30 34/26/30
f 22/36/31 30/37/31 40/45/31
f 27/29/32 37/46/32 38/48/32
f 46/51/33 45/73/33 50/78/33
f 50/78/33 49/49/33 46/51/33
f 48/50/33 47/79/33 46/51/33
f 38/48/34 48/59/34 49/52/34
f 35/27/35 45/60/35 46/53/35
f 31/40/36 41/39/36 43/54/36
f 39/42/37 49/52/37 50/55/37
f 36/43/38 46/53/38 47/56/38
f 33/44/39 43/54/39 44/57/39
f 40/45/40 50/55/40 42/58/40
f 37/46/41 47/56/41 48/59/41
f 34/26/42 44/57/42 45/60/42
f 54/61/34 53/80/34 51/62/34
f 58/64/43 57/81/43 53/65/43
f 56/66/39 55/82/39 57/67/39
f 52/63/44 51/83/44 55/68/44
f 58/64/33 54/61/33 52/63/33
f 17/71/12 19/84/12 1/69/12
f 1/69/12 11/24/12 13/70/12
f 13/70/12 15/85/12 17/71/12
f 43/74/33 41/86/33 42/72/33
f 42/72/33 50/78/33 45/73/33
f 45/73/33 44/87/33 43/74/33
