# Blender v2.77 (sub 0) OBJ File: 'rocks.blend'
# www.blender.org
mtllib rocks.mtl
o prop_env_rock01_Plane
v 1.491213 1.411633 -0.785274
v -0.265388 1.437519 -1.485250
v -1.127302 1.632036 -0.876597
v 1.413754 1.657520 0.918855
v 0.621462 1.639872 1.501292
v -0.462456 1.684815 1.470466
v -1.396446 -0.124004 1.481153
v -1.703424 -0.124004 0.596281
v 0.590039 -0.151984 2.239331
v 1.387622 -0.124004 -1.695786
v -0.348915 -0.124004 -2.093841
v -1.180856 1.634703 0.306309
v -0.559628 -0.124004 2.209654
v 2.099641 -0.124004 -0.484859
v 1.975899 -0.124004 1.143435
v -1.620911 -0.124004 -0.866080
v -0.265388 1.437519 -1.485250
v -0.348915 -0.124004 -2.093841
vt 0.0786 0.7363
vt 0.1011 0.9110
vt -0.0102 0.8304
vt 0.3839 0.4673
vt 0.4040 0.6268
vt 0.2961 0.6058
vt 0.1540 0.6778
vt 0.2967 0.6067
vt 0.2011 0.8151
vt 0.3118 0.4634
vt 0.4786 0.6646
vt 0.4720 0.4921
vt 0.5505 0.5335
vt 0.3338 0.8169
vt 0.2038 0.9453
vt 0.2009 0.8159
vt 0.3287 0.9619
vt 0.4092 0.8079
vt 0.4641 0.9469
vt 0.1985 0.4727
vt 0.1220 0.6205
vt 0.0658 0.5039
vt 0.0786 0.7363
vt -0.0102 0.8304
vt 0.0786 0.7363
vt 0.3334 0.8156
vt 0.2053 0.6133
vt 0.3829 0.6739
vt 0.3812 0.7571
vt 0.2044 0.6132
vt -0.0102 0.8304
vn 0.2097 0.3453 -0.9148
vn -0.7847 0.4079 0.4667
vn 0.0484 0.9952 -0.0848
vn -0.8959 0.3174 0.3108
vn -0.0146 0.3810 0.9245
vn 0.9303 0.3665 -0.0106
vn 0.8378 0.2356 -0.4926
vn 0.5881 0.2992 0.7514
vn -0.6619 0.3027 -0.6858
vn -0.6210 0.3249 0.7133
vn -0.9596 0.2762 -0.0541
vn 0.0000 0.0000 1.0000
vn 0.3338 0.4640 -0.8205
vn 0.0247 0.9896 -0.1417
vn 0.2255 0.9742 0.0080
vn 0.0433 0.9966 -0.0696
vn -0.0121 0.9998 0.0139
vn -0.0106 0.3788 0.9254
vn 0.9485 0.3084 0.0721
vn 0.5652 0.2763 0.7773
vn -0.5477 0.1490 -0.8233
vn -0.9618 0.2701 -0.0442
usemtl rock01
s off
f 2/1/1 10/2/1 11/3/1
f 7/4/2 6/5/2 12/6/2
f 2/7/3 12/8/3 1/9/3
f 12/6/4 8/10/4 7/4/4
f 5/11/5 13/12/5 9/13/5
f 4/14/6 14/15/6 1/16/6
f 14/15/7 10/2/7 1/16/7
f 15/17/8 5/18/8 9/19/8
f 16/20/9 2/21/9 11/22/9
f 6/5/10 7/4/10 13/12/10
f 12/6/11 16/20/11 8/10/11
f 11/23/12 17/24/12 18/25/12
f 2/1/13 1/16/13 10/2/13
f 4/26/14 1/9/14 12/8/14
f 2/7/15 3/27/15 12/8/15
f 12/8/16 6/28/16 5/29/16
f 5/29/17 4/26/17 12/8/17
f 5/11/18 6/5/18 13/12/18
f 4/14/19 15/17/19 14/15/19
f 15/17/20 4/14/20 5/18/20
f 16/20/21 3/30/21 2/21/21
f 12/6/22 3/30/22 16/20/22
f 11/23/12 2/31/12 17/24/12
